,
Brought to you by  http://www.scenetime.com/signup.php
 
 Hottest scene tracker on the net !!!   
 
No fake torrents from scenebalance 
shame on those who comment fake before downloading my torrents

    seed back for speed


 



...................................NFO:.................................................::::::::::::::Enjoy:Another:Release:From:TDP::::::::::::::


TiTLE.........: Rango.2011.DVDScr.AC3.XviD-TDP
RUNTiME.......: 1h 47mn
FORMAT........: XviD
RAR COUNT.....: 98x15MB
SOURCE .......: Russian DVDScr
GENRE.........: Animation | Adventure | Comedy
AUDIO.........: English ( EP1C ThX )
SUBTITLES.....: None
SAMPEL........: YES
RELEASE DATE..: 26-05-2011

IMDB : http://www.imdb.com/title/tt1192628/

Plot :
Rango is an ordinary chameleon who accidentally winds up in 
the town of Dirt, a lawless outpost in the Wild West in 
desperate need of a new sheriff. 


General

Complete name                    : Rango.2011.DVDScr.AC3.XviD-TDP
Format                           : Matroska
File size                        : 1.36 GiB
Duration                         : 1h 47mn
Overall bit rate                 : 1 819 Kbps
Encoded date                     : UTC 2011-05-27 07:47:34
Writing application              : mkvmerge v4.7.0 ('Just Like You Imagined') built on Apr 21 2011 01:13:14
Writing library                  : libebml v1.2.0 + libmatroska v1.1.0

Video

Format                           : MPEG-4 Visual
Format profile                   : Advanced Simple@L5
Format settings, BVOP            : Yes
Format settings, QPel            : No
Format settings, GMC             : No warppoints
Format settings, Matrix          : Custom
Codec ID                         : XVID
Codec ID/Hint                    : XviD
Duration                         : 1h 47mn
Bit rate                         : 1 590 Kbps
Width                            : 720 pixels
Height                           : 304 pixels
Display aspect ratio             : 2.35:1
Frame rate                       : 23.976 fps
Color space                      : YUV
Chroma subsampling               : 4:2:0
Bit depth                        : 8 bits
Scan type                        : Progressive
Compression mode                 : Lossy
Bits/(Pixel*Frame)               : 0.303
Stream size                      : 1.19 GiB (87%)
Writing library                  : XviD 58

Audio

Format                           : AC-3
Format/Info                      : Audio Coding 3
Mode extension                   : CM (complete main)
Muxing mode                      : Header stripping
Codec ID                         : A_AC3
Duration                         : 1h 47mn
Bit rate mode                    : Constant
Bit rate                         : 192 Kbps
Channel(s)                       : 2 channels
Channel positions                : Front: L R
Sampling rate                    : 48.0 KHz
Bit depth                        : 16 bits
Compression mode                 : Lossy
Stream size                      : 147 MiB 

[img]http://i22.fastpic.ru/big/2011/0527/bf/02e916c55b5a0c9129b35f2b138231bf.png[/img]
[img]http://i22.fastpic.ru/big/2011/0527/cc/a94464634b23d47c9c88b3eea276bfcc.png[/img]
[img]http://i22.fastpic.ru/big/2011/0527/03/9181c457d255a4d7b35742926d67ec03.png[/img]

GREETS:

IMAGiNE,FLAWL3SS,ViSiON,FUSiON,Rx,CM8,SecretMyth,BirdFlu,ELEKTRI4KA,Serenity,INK,SUBLIME
And to all the other p2p grps past and present

Looking for : SYNCERS, CAMMERS, SEED/RiPBOXES for group use
CAPPERS, SiLVER SUPPLiERS, and R1-R2-R4 PRE-RETAiL SOURCE SUPPLIERS!
Always looking for CAM+LiNE+SCR+DVDSCR+BRSCR+RUS DVD+PRERETAIL BR & DVD
If you'd like to help, feel free to contact us at thedanishpirates@gmail.com